<?xml version="1.0" encoding="UTF-8"?><svg id="coqueiro" xmlns="http://www.w3.org/2000/svg" viewBox="0 0 504.74 565.85"><path d="m262.54,165.5S365.06,2.33,496.54,132.63c0,0-153.39-19.56-234,32.87Z" fill="#6dbe45"/><path d="m266.48,159.76c-.63.87-1.18,1.66-1.66,2.35.08.43.18,1.02.31,1.77,81.25-50.39,231.42-31.25,231.42-31.25-.61-.61-1.22-1.19-1.83-1.78-2.14-1.04-4.31-2.12-6.6-3.07-110.92-45.78-207.63,20.62-221.63,31.97Z" fill="#fff"/><path d="m258.24,171.37s-162.58,14.67-205.43,79.24c0,0,38.74-168.06,205.43-79.24Z" fill="#6dbe45"/><path d="m254.72,165.5S210.11-24.67,8.2,80.98c0,0,159.65-1.17,246.52,84.52Z" fill="#6dbe45"/><path d="m258.24,171.37s201.91-51.65,190.17,160.82c0,0-63.78-135.39-190.17-160.82Z" fill="#6dbe45"/><path d="m296.55,174.47c-25.7.66-38.31-3.1-38.31-3.1,126.39,25.43,190.17,160.82,190.17,160.82.53-9.59-6.69-23.45-7-31.99-15.19-27.5-51.02-109.78-144.86-125.73Z" fill="#fff"/><path d="m254.72,165.5S212.46,27.77,361.93,8.2c0,0-83.74,55.56-107.22,157.3Z" fill="#6dbe45"/><path d="m254.72,165.5s-130.19,173.82-130.19,392.15h78.54s-38.25-97.61,51.65-392.15Z" fill="#f68e49"/><path d="m254.72,165.5s-3.72,4.97-9.88,14.25c-94.84,239.66-66.95,377.9-66.95,377.9h25.18s-38.25-97.61,51.65-392.15Z" fill="#fff"/><path d="m52.8,258.81c-1.09,0-2.19-.22-3.24-.67-3.64-1.57-5.64-5.51-4.75-9.37.7-3.03,17.77-74.43,77.19-101.49,38.81-17.67,85.94-12,140.09,16.85,3.2,1.7,4.9,5.31,4.18,8.86-.72,3.55-3.69,6.21-7.3,6.54-1.59.14-159.16,15.07-199.34,75.6-1.56,2.35-4.16,3.67-6.84,3.67Zm116.87-105.15c-14.72,0-28.37,2.85-40.88,8.54-27.2,12.39-44.49,36.23-54.82,56.31,44.51-31.26,115.88-45.79,155.29-51.75-21.44-8.73-41.34-13.1-59.59-13.1Z" fill="#4a4742"/><path d="m254.72,173.7c-2.1,0-4.19-.81-5.76-2.36C165.48,88.98,9.82,89.21,8.26,89.18c-3.76.08-7.1-2.54-8.02-6.21-.92-3.67.8-7.5,4.15-9.25,67.31-35.22,125.16-42.22,171.96-20.81,66.87,30.6,85.58,107.46,86.35,110.72.83,3.56-.78,7.24-3.97,9.02-1.26.71-2.64,1.05-4.01,1.05ZM41.44,74.46c15.87,1.4,36.36,3.95,59.09,8.61,39.63,8.13,92.42,24.27,135.73,56.04-10.91-23.36-31.49-55.21-66.84-71.34-35.18-16.05-78.13-13.78-127.98,6.69Z" fill="#4a4742"/><path d="m262.54,173.7c-2.1,0-4.18-.8-5.75-2.36-2.74-2.7-3.24-6.95-1.19-10.21,2-3.18,49.73-77.9,123.69-86.4,41.91-4.81,83.3,12.7,123.03,52.07,2.5,2.47,3.14,6.26,1.6,9.42-1.54,3.16-4.92,4.98-8.41,4.54-1.51-.19-151.37-18.56-228.49,31.61-1.37.89-2.92,1.33-4.47,1.33Zm130.15-83.33c-3.85,0-7.7.22-11.54.66-38.25,4.4-69.43,29.78-89.02,50.58,61.78-23.56,140.79-22.11,180.49-19.41-26.4-21.17-53.18-31.84-79.93-31.84Z" fill="#4a4742"/><path d="m448.41,340.39c-3.13,0-6.04-1.79-7.41-4.71-.15-.33-16.03-33.58-46.79-69.37-28.08-32.66-74.74-74.26-137.58-86.9-3.75-.75-6.48-4-6.58-7.83-.1-3.82,2.46-7.21,6.16-8.16.93-.24,22.95-5.78,52.3-5.78.35,0,.71,0,1.07,0,40.08.18,74.23,10.94,98.77,31.1,35.67,29.31,51.91,77.72,48.25,143.9-.21,3.75-2.93,6.88-6.62,7.59-.53.1-1.05.15-1.57.15Zm-151.4-166.01c39.76,15.73,77.23,43.45,109.94,81.6,14.29,16.67,25.42,32.63,33.42,45.33-2.32-45.1-16.54-78.63-42.43-99.9-30.48-25.04-71.6-28.56-100.93-27.04Z" fill="#4a4742"/><path d="m254.71,173.7c-3.59,0-6.78-2.34-7.84-5.79-.79-2.57-18.97-63.57,12.51-112.53C278.97,24.93,313.11,6.32,360.87.07c3.79-.5,7.41,1.68,8.74,5.26,1.34,3.57.03,7.6-3.15,9.7-.8.54-81.33,55.13-103.76,152.31-.83,3.61-3.99,6.22-7.7,6.35-.1,0-.2,0-.29,0ZM330.3,23.42c-25.76,8.22-44.88,21.86-57.06,40.74-13.54,21-16.35,45.28-15.7,64.53,19.14-48.99,50.31-84.4,72.76-105.27Z" fill="#4a4742"/><path d="m203.07,565.85h-78.54c-4.53,0-8.2-3.67-8.2-8.2,0-114.27,35.81-216.08,65.85-281.38,32.54-70.73,64.63-113.89,65.98-115.69,2.39-3.19,6.72-4.2,10.27-2.4,3.55,1.8,5.3,5.9,4.13,9.71-25.24,82.71-55.99,202.27-59.12,302.2-1.87,59.75,7.19,84.36,7.28,84.6.96,2.52.62,5.37-.91,7.59s-4.05,3.56-6.74,3.56Zm-70.28-16.4h59.5c-6.79-30.54-17.73-126.54,38.74-331.83-10.32,17.77-22.26,40.03-34.15,65.9-28.55,62.14-62.44,158.12-64.1,265.92Z" fill="#4a4742"/></svg>