<?xml version="1.0" encoding="UTF-8"?><svg id="filtro" xmlns="http://www.w3.org/2000/svg" viewBox="0 0 274.53 437.19"><rect x="40.88" y="301.73" width="172.75" height="128.07" fill="#f9a333"/><rect x="40.88" y="396.14" width="192.77" height="33.66" fill="#fff"/><polygon points="233.65 301.73 40.88 301.73 8.26 7.39 266.27 7.39 233.65 301.73" fill="#fff"/><polygon points="210.81 301.73 37.57 301.73 8.26 7.39 240.13 7.39 210.81 301.73" fill="#f9a333"/><polygon points="263.74 30.25 266.27 7.39 8.26 7.39 10.79 30.25 263.74 30.25" fill="#fff"/><path d="m177.18,399.75c-1.88-20.4-19.03-36.37-39.92-36.37s-38.04,15.97-39.92,36.37h79.84Z" fill="#fff"/><path d="m241.04,437.19H33.49v-142.85h207.55v142.85Zm-192.77-14.78h177.99v-113.29H48.27v113.29Z" fill="#4a4742"/><path d="m240.26,309.12H34.26L0,0h274.53l-34.26,309.12Zm-192.77-14.78h179.54L258.02,14.78H16.51l30.99,279.55Z" fill="#4a4742"/><rect x="41.17" y="392.44" width="192.19" height="14.78" fill="#4a4742"/><path d="m185.29,407.14h-96.05l.74-8.07c2.27-24.56,22.59-43.08,47.28-43.08s45.01,18.52,47.28,43.08l.74,8.07Zm-78.81-14.78h61.57c-4.54-12.73-16.62-21.59-30.79-21.59s-26.25,8.85-30.79,21.59Z" fill="#4a4742"/><rect x="12.94" y="26.76" width="251.72" height="14.78" fill="#4a4742"/><circle cx="137.5" cy="164.88" r="36.45" fill="#fff"/><g><path d="m137.32,119.47c-1.7,0-3.08-1.38-3.08-3.08v-15.13c0-1.7,1.38-3.08,3.08-3.08s3.08,1.38,3.08,3.08v15.13c0,1.7-1.38,3.08-3.08,3.08Z" fill="#fffefd"/><path d="m137.32,231.44c-1.7,0-3.08-1.38-3.08-3.08v-15.13c0-1.7,1.38-3.08,3.08-3.08s3.08,1.38,3.08,3.08v15.13c0,1.7-1.38,3.08-3.08,3.08Z" fill="#fffefd"/></g><g><path d="m113.12,125.95c-1.06,0-2.1-.55-2.67-1.54l-7.57-13.1c-.85-1.47-.35-3.36,1.13-4.21,1.47-.85,3.36-.35,4.21,1.13l7.57,13.1c.85,1.47.35,3.36-1.13,4.21-.48.28-1.01.41-1.54.41Z" fill="#fffefd"/><path d="m169.1,222.93c-1.06,0-2.1-.55-2.67-1.54l-7.57-13.1c-.85-1.47-.35-3.36,1.13-4.21,1.47-.85,3.36-.35,4.21,1.13l7.57,13.1c.85,1.47.35,3.36-1.13,4.21-.48.28-1.01.41-1.54.41Z" fill="#fffefd"/></g><g><path d="m95.39,143.68c-.52,0-1.05-.13-1.54-.41l-13.1-7.57c-1.47-.85-1.98-2.73-1.13-4.21.85-1.47,2.73-1.98,4.21-1.13l13.1,7.57c1.47.85,1.98,2.73,1.13,4.21-.57.99-1.61,1.54-2.67,1.54Z" fill="#fffefd"/><path d="m192.36,199.66c-.52,0-1.05-.13-1.54-.41l-13.1-7.57c-1.47-.85-1.98-2.73-1.13-4.21.85-1.47,2.73-1.98,4.21-1.13l13.1,7.57c1.47.85,1.98,2.73,1.13,4.21-.57.99-1.61,1.54-2.67,1.54Z" fill="#fffefd"/></g><g><path d="m88.9,167.89h-15.13c-1.7,0-3.08-1.38-3.08-3.08s1.38-3.08,3.08-3.08h15.13c1.7,0,3.08,1.38,3.08,3.08s-1.38,3.08-3.08,3.08Z" fill="#fffefd"/><path d="m200.88,167.89h-15.13c-1.7,0-3.08-1.38-3.08-3.08s1.38-3.08,3.08-3.08h15.13c1.7,0,3.08,1.38,3.08,3.08s-1.38,3.08-3.08,3.08Z" fill="#fffefd"/></g><g><path d="m82.29,199.66c-1.06,0-2.1-.55-2.67-1.54-.85-1.47-.35-3.36,1.13-4.21l13.1-7.57c1.47-.85,3.36-.35,4.21,1.13.85,1.47.35,3.36-1.13,4.21l-13.1,7.57c-.48.28-1.01.41-1.54.41Z" fill="#fffefd"/><path d="m179.26,143.68c-1.06,0-2.1-.55-2.67-1.54-.85-1.47-.35-3.36,1.13-4.21l13.1-7.57c1.47-.85,3.36-.35,4.21,1.13.85,1.47.35,3.36-1.13,4.21l-13.1,7.57c-.48.28-1.01.41-1.54.41Z" fill="#fffefd"/></g><g><path d="m105.54,222.93c-.52,0-1.05-.13-1.54-.41-1.47-.85-1.98-2.73-1.13-4.21l7.57-13.1c.85-1.47,2.73-1.98,4.21-1.13,1.47.85,1.98,2.73,1.13,4.21l-7.57,13.1c-.57.99-1.61,1.54-2.67,1.54Z" fill="#fffefd"/><path d="m161.53,125.95c-.52,0-1.05-.13-1.54-.41-1.47-.85-1.98-2.73-1.13-4.21l7.57-13.1c.85-1.47,2.73-1.98,4.21-1.13,1.47.85,1.98,2.73,1.13,4.21l-7.57,13.1c-.57.99-1.61,1.54-2.67,1.54Z" fill="#fffefd"/></g></svg>