<?xml version="1.0" encoding="UTF-8"?>
<svg xmlns="http://www.w3.org/2000/svg" viewBox="0 0 728.4 290.09">
  <g id="lettering">
    <g>
      <path d="m22.71,276.93c-4.31-5.83-8.11-12.29-11.4-19.38-3.3-7.09-5.96-14.31-7.98-21.66-4.3-32.42-4.43-63.9-.38-94.43,4.05-30.52,10.64-60.61,19.76-90.25,1.52-3.29,4.81-4.94,9.88-4.94s10.13,1.14,15.2,3.42c5.06,2.28,9.24,5.32,12.54,9.12,3.29,3.8,4.05,7.73,2.28,11.78-2.79,6.08-5.58,14.25-8.36,24.51-2.79,10.26-5.45,21.6-7.98,34.01-2.54,12.42-4.75,25.4-6.65,38.95-1.9,13.56-3.3,26.54-4.18,38.95-.89,12.42-1.08,23.63-.57,33.63.5,10.01,2.02,17.93,4.56,23.75,11.9-15.96,22.8-32.49,32.68-49.59s19.19-34.45,27.93-52.06c8.74-17.6,17.03-35.4,24.89-53.39,7.85-17.98,15.58-35.72,23.18-53.2,3.8-8.86,7.53-18.24,11.21-28.12,3.67-9.88,8.55-18.36,14.63-25.46,2.53-2.28,4.5-3.04,5.89-2.28,1.39.76,2.34,2.22,2.85,4.37.5,2.16.76,4.44.76,6.84v5.51c-1.77,11.66-3.29,23.18-4.56,34.58-1.27,11.4-3.93,22.42-7.98,33.06-6.59,16.72-13.37,33.32-20.33,49.78-6.97,16.47-14.44,32.68-22.42,48.64-7.98,15.96-16.6,31.48-25.84,46.55-9.25,15.08-19.32,29.45-30.21,43.13-8.62,10.89-17.17,16.66-25.65,17.29-8.49.63-16.41-3.74-23.75-13.11Z"/>
      <path d="m373.25,176.98c-.13-3.54-.83-7.15-2.09-10.83-1.27-3.67-3.11-6.96-5.51-9.88-2.41-2.91-5.64-5-9.69-6.27-7.85-.76-15.39.95-22.61,5.13-7.22,4.18-14.06,9.5-20.52,15.96-6.46,6.46-12.42,13.43-17.86,20.9-5.45,7.48-10.45,14-15.01,19.57,2.02-6.84,3.86-13.8,5.51-20.9,1.64-7.09,1.96-13.17.95-18.24-.51-2.02-1.65-3.54-3.42-4.56-1.77-1.01-3.8-1.45-6.08-1.33-2.28.13-4.37.76-6.27,1.9-1.9,1.14-3.11,2.73-3.61,4.75-1.78,7.6-3.49,15.58-5.13,23.94-.6,3.03-1.18,6.05-1.76,9.08-1.17,1.23-2.42,2.5-3.75,3.84-2.54,2.28-5.7,5.2-9.5,8.74-3.8,3.55-7.73,7.22-11.78,11.02-4.06,3.8-8.11,7.41-12.16,10.83-4.06,3.42-7.73,6.27-11.02,8.55-2.79,1.52-6.46,3.29-11.02,5.32-4.56,2.03-9.06,3.23-13.49,3.61-4.44.38-8.05-.38-10.83-2.28-2.79-1.9-3.8-6.14-3.04-12.73,0-2.53,1.39-5.63,4.18-9.31,2.78-3.67,6.08-7.28,9.88-10.83,3.8-3.54,7.72-6.96,11.78-10.26,4.05-3.29,7.22-5.95,9.5-7.98,4.56-4.3,7.79-8.42,9.69-12.35,1.9-3.92,3.35-8.67,4.37-14.25,1.26-5.82.44-10.76-2.47-14.82-2.92-4.05-7.03-6.71-12.35-7.98-10.39.26-19.45,3.17-27.17,8.74-7.73,5.58-14.13,12.73-19.19,21.47-5.06,8.74-8.86,18.31-11.4,28.69-2.53,10.39-3.54,20.4-3.04,30.02,0,12.67,3.74,21.79,11.21,27.36,7.47,5.58,17.03,7.98,28.69,7.22,6.58-1.01,12.98-3.23,19.19-6.65,6.2-3.42,12.16-7.47,17.86-12.16,5.7-4.68,11.14-9.81,16.34-15.39,5.19-5.57,10.07-10.89,14.63-15.96.3-.35.59-.7.89-1.04-1.21,6.4-2.45,12.58-3.74,18.52-1.64,7.6-3.35,14.44-5.13,20.52-1.26,3.3-1.52,6.4-.76,9.31.76,2.91,2.54,4.88,5.32,5.89,2.79,1.01,5.2.38,7.22-1.9,6.84-9.62,13.68-20.01,20.52-31.16,6.84-11.15,13.87-21.91,21.09-32.3,7.22-10.38,14.88-19.82,22.99-28.31,8.1-8.48,16.97-14.88,26.6-19.19-3.55,5.07-6.72,10.39-9.5,15.96-2.79,5.58-4.82,11.28-6.08,17.1-1.27,5.83-1.46,11.59-.57,17.29.88,5.7,3.35,11.34,7.41,16.91,1.26,1.52,3.42,2.66,6.46,3.42,3.04.76,6.08,1.08,9.12.95,3.04-.12,5.44-.69,7.22-1.71,1.77-1.01,1.9-2.53.38-4.56-3.8-3.29-5.83-7.03-6.08-11.21-.26-4.18.31-8.42,1.71-12.73,1.39-4.3,3.29-8.55,5.7-12.73,2.4-4.18,4.49-8.04,6.27-11.59.76-2.53,1.07-5.57.95-9.12Zm-181.26,5.7c3.92-4.05,9.31-7.34,16.15-9.88-2.03,6.08-5.26,11.21-9.69,15.39-4.44,4.18-9.44,8.3-15.01,12.35,1.77-7.85,4.62-13.8,8.55-17.86Z"/>
      <g>
        <path d="m426.26,125.12c2.53-2.28,5.06-4.68,7.6-7.22,2.53-2.53,5.19-4.81,7.98-6.84,3.8-3.29,7.03-3.86,9.69-1.71,2.66,2.16,5.44,5.07,8.36,8.74,2.91,3.68,6.14,7.16,9.69,10.45,3.54,3.3,8.23,4.31,14.06,3.04,12.66-2.53,21.02-10.76,25.08-24.7.5-2.02.44-3.61-.19-4.75-.64-1.14-1.97-1.07-3.99.19-2.54,1.78-5.13,3.49-7.79,5.13-2.66,1.65-5.26,3.49-7.79,5.51-3.55,2.28-6.53,3.23-8.93,2.85-2.41-.38-4.69-1.45-6.84-3.23-2.16-1.77-4.31-3.99-6.46-6.65-2.16-2.66-4.75-5.25-7.79-7.79-3.3-2.53-6.65-3.73-10.07-3.61-3.42.13-6.78,1.21-10.07,3.23-1.27.76-3.23,2.35-5.89,4.75-2.66,2.41-5.13,5.07-7.41,7.98-2.28,2.92-3.99,5.77-5.13,8.55-1.14,2.79-.7,5.07,1.33,6.84,1.77.76,3.29.51,4.56-.76Z"/>
        <path d="m653.5,191.04c-3.55.76-7.29,1.84-11.21,3.23-3.93,1.4-7.67,2.6-11.21,3.61-3.04.76-6.33,1.78-9.88,3.04-3.55,1.27-6.84,2.03-9.88,2.28.25-1.52.63-3.8,1.14-6.84.5-3.04.63-6.39.38-10.07-.26-3.67-1.02-7.47-2.28-11.4-1.27-3.92-3.42-7.53-6.46-10.83-3.55-4.3-7.67-7.22-12.35-8.74-4.69-1.52-9.82-1.77-15.39-.76-8.87,1.02-16.66,4.75-23.37,11.21-6.71,6.46-12.22,13.49-16.53,21.09-1.52,2.54-2.66,5.32-3.42,8.36-.72,2.9-1.45,5.67-2.17,8.34-.61.61-1.24,1.27-1.9,1.95-.6.24-1.14.49-1.63.73-.5.26-1.01.7-1.52,1.33-.38.48-.7,1.3-.93,2.45-.44.5-.88,1.01-1.34,1.54-4.56,5.32-9.44,10.9-14.63,16.72-5.2,5.83-10.45,11.34-15.77,16.53-5.32,5.2-10.39,8.81-15.2,10.83-6.08,2.28-10.26,2.41-12.54.38-2.28-2.02-3.04-6.33-2.28-12.92.76-4.3,2.59-9.24,5.51-14.82,2.91-5.57,5.25-10.38,7.03-14.44,1.52-3.29,1.83-6.52.95-9.69-.89-3.16-2.54-5.82-4.94-7.98-2.41-2.15-5.26-3.35-8.55-3.61-3.3-.25-6.59.89-9.88,3.42-.26.26-1.97,2.47-5.13,6.65-3.17,4.18-6.91,9-11.21,14.44-4.31,5.45-8.87,10.96-13.68,16.53-4.82,5.58-9.12,9.95-12.92,13.11-3.8,3.17-6.59,4.56-8.36,4.18-1.78-.38-1.9-3.86-.38-10.45,1.01-4.05,3.54-10.07,7.6-18.05,4.05-7.98,8.86-15.96,14.44-23.94,5.57-7.98,11.4-14.94,17.48-20.9,6.08-5.95,11.52-8.93,16.34-8.93,2.28,0,4.11.57,5.51,1.71,1.39,1.14,2.47,2.41,3.23,3.8.76,1.4,1.33,2.79,1.71,4.18.38,1.4.69,2.47.95,3.23.76,1.52,1.52,2.22,2.28,2.09.76-.12,1.58-.69,2.47-1.71.88-1.01,1.65-2.28,2.28-3.8.63-1.52,1.2-3.04,1.71-4.56,1.01-4.05.63-7.79-1.14-11.21-1.78-3.42-4.31-6.27-7.6-8.55-3.29-2.28-7.16-3.73-11.59-4.37-4.44-.63-8.68-.44-12.73.57-12.16,2.54-22.55,8.36-31.16,17.48-8.62,9.12-15.71,19.51-21.28,31.16-3.29,7.1-6.08,14.32-8.36,21.66-2.28,7.35-4.05,14.31-5.32,20.9-.25,2.54-.12,5.96.38,10.26.51,4.31,1.9,7.6,4.18,9.88,2.28,2.28,4.69,4.25,7.22,5.89,2.53,1.65,5.32,2.73,8.36,3.23,4.05.76,7.91.7,11.59-.19,3.67-.88,7.15-2.15,10.45-3.8,3.29-1.64,6.33-3.54,9.12-5.7,2.78-2.15,5.32-4.11,7.6-5.89.76,4.05,2.15,7.86,4.18,11.4,2.02,3.55,4.68,6.46,7.98,8.74,3.29,2.28,6.96,3.73,11.02,4.37,4.05.63,8.61.06,13.68-1.71,8.1-3.04,15.64-7.16,22.61-12.35,6.96-5.19,13.3-11.14,19-17.86,1.93-2.27,3.76-4.62,5.56-7.02.03,1.2.06,2.4.14,3.6.38,6.21,1.52,11.97,3.42,17.29,1.9,5.32,4.75,9.25,8.55,11.78,5.06,4.06,11.14,6.08,18.24,6.08,5.07,0,10.32-2.28,15.77-6.84,5.44-4.56,10.64-10,15.58-16.34,4.94-6.33,9.43-12.85,13.49-19.57,4.05-6.71,7.22-12.09,9.5-16.15,5.32-2.79,10.95-4.94,16.91-6.46,5.95-1.52,11.97-3.67,18.05-6.46,1.26-.76,3.1-2.02,5.51-3.8,2.4-1.77,4.56-3.61,6.46-5.51,1.9-1.9,3.1-3.54,3.61-4.94.5-1.39-.51-2.09-3.04-2.09Zm-72.39,45.79c-2.16,4.18-4.69,8.3-7.6,12.35-2.92,4.06-5.96,7.67-9.12,10.83s-6.02,5-8.55,5.51c-1.27-2.02-2.28-4.81-3.04-8.36-.76-3.54-1.27-7.28-1.52-11.21-.25-3.92-.25-7.72,0-11.4.25-3.67.76-6.65,1.52-8.93,5.06,1.02,10.51,1.52,16.34,1.52s11.27-.25,16.34-.76c-.76,2.79-2.22,6.27-4.37,10.45Zm10.83-32.11c0,.51-.25,1.02-.76,1.52-.51.51-1.02.76-1.52.76-1.27,0-3.61.26-7.03.76-3.42.51-6.97.83-10.64.95-3.67.13-6.97.07-9.88-.19-2.92-.25-4.37-1.01-4.37-2.28.25-2.78-.89-5.32-3.42-7.6-.51-.5-.76-1.39-.76-2.66,2.78-4.3,5.7-8.48,8.74-12.54,3.04-4.05,7.09-7.6,12.16-10.64,2.53-1.27,5.19-1.77,7.98-1.52,2.79.25,5.06,1.4,6.84,3.42,3.54,3.55,5.38,8.24,5.51,14.06.12,5.83-.83,11.15-2.85,15.96Z"/>
      </g>
    </g>
  </g>
  <g id="exclamacao">
    <path d="m659.58,265.52c-3.8.51-7.03-.82-9.69-3.99-2.66-3.16-4.31-6.84-4.94-11.02-.63-4.18-.19-8.36,1.33-12.54,1.52-4.18,4.56-7.15,9.12-8.93,5.57-1.77,9.94-1.01,13.11,2.28,3.17,3.3,5,7.41,5.51,12.35.5,4.94-.45,9.69-2.85,14.25-2.41,4.56-6.27,7.09-11.59,7.6Zm48.64-222.68c1.77-1.77,3.99-2.66,6.65-2.66s5.06.51,7.22,1.52c2.15,1.02,3.86,2.54,5.13,4.56,1.26,2.03,1.52,4.31.76,6.84-1.01,3.8-2.66,9.31-4.94,16.53-2.28,7.22-5.01,15.39-8.17,24.51-3.17,9.12-6.59,18.81-10.26,29.07-3.68,10.26-7.41,20.4-11.21,30.4-3.8,10.01-7.54,19.51-11.21,28.5-3.67,9-6.91,16.66-9.69,22.99-1.02,2.28-2.41,3.17-4.18,2.66-1.78-.5-3.04-1.77-3.8-3.8-1.52-8.61-2.16-16.84-1.9-24.7.25-7.85,1.01-15.71,2.28-23.56,1.27-7.09,3.36-16.21,6.27-27.36,2.91-11.14,6.33-22.42,10.26-33.82,3.92-11.4,8.23-21.91,12.92-31.54,4.68-9.62,9.31-16.34,13.87-20.14Z"/>
  </g>
</svg>