<?xml version="1.0" encoding="UTF-8"?><svg xmlns="http://www.w3.org/2000/svg" viewBox="0 0 640.01 199.3"><g id="exclam"><path d="m611.03,111.8c-1.6.21-2.96-.35-4.08-1.68-1.12-1.33-1.82-2.88-2.08-4.64-.27-1.76-.08-3.52.56-5.28.64-1.76,1.92-3.01,3.84-3.76,2.35-.74,4.19-.42,5.52.96,1.33,1.39,2.1,3.12,2.32,5.2.21,2.08-.19,4.08-1.2,6-1.02,1.92-2.64,2.99-4.88,3.2Zm20.48-93.76c.75-.75,1.68-1.12,2.8-1.12s2.13.22,3.04.64c.91.43,1.62,1.07,2.16,1.92.53.85.64,1.81.32,2.88-.43,1.6-1.12,3.92-2.08,6.96-.96,3.04-2.11,6.48-3.44,10.32-1.33,3.84-2.77,7.92-4.32,12.24-1.55,4.32-3.12,8.59-4.72,12.8-1.6,4.21-3.17,8.21-4.72,12-1.55,3.79-2.91,7.02-4.08,9.68-.43.96-1.01,1.34-1.76,1.12-.75-.21-1.28-.75-1.6-1.6-.64-3.62-.91-7.09-.8-10.4.11-3.3.43-6.61.96-9.92.53-2.98,1.41-6.83,2.64-11.52,1.22-4.69,2.67-9.44,4.32-14.24,1.65-4.8,3.47-9.23,5.44-13.28,1.97-4.05,3.92-6.88,5.84-8.48Z"/></g><g id="viagem"><path d="m258.24,116.6c-1.81-2.45-3.41-5.17-4.8-8.16-1.39-2.98-2.51-6.02-3.36-9.12-1.81-13.65-1.87-26.91-.16-39.76,1.71-12.85,4.48-25.52,8.32-38,.64-1.38,2.03-2.08,4.16-2.08s4.27.48,6.4,1.44c2.13.96,3.89,2.24,5.28,3.84,1.38,1.6,1.71,3.25.96,4.96-1.18,2.56-2.35,6-3.52,10.32-1.18,4.32-2.29,9.1-3.36,14.32-1.07,5.23-2,10.7-2.8,16.4-.8,5.71-1.39,11.17-1.76,16.4-.38,5.23-.46,9.95-.24,14.16.21,4.21.85,7.55,1.92,10,5.01-6.72,9.6-13.68,13.76-20.88,4.16-7.2,8.08-14.5,11.76-21.92,3.68-7.41,7.17-14.9,10.48-22.48,3.31-7.57,6.56-15.04,9.76-22.4,1.6-3.73,3.17-7.68,4.72-11.84,1.54-4.16,3.6-7.73,6.16-10.72,1.06-.96,1.89-1.28,2.48-.96.58.32.98.94,1.2,1.84.21.91.32,1.87.32,2.88v2.32c-.75,4.91-1.39,9.76-1.92,14.56-.54,4.8-1.66,9.44-3.36,13.92-2.77,7.04-5.63,14.03-8.56,20.96-2.94,6.94-6.08,13.76-9.44,20.48-3.36,6.72-6.99,13.25-10.88,19.6-3.9,6.35-8.13,12.4-12.72,18.16-3.63,4.59-7.23,7.01-10.8,7.28-3.57.27-6.91-1.58-10-5.52Z"/><path d="m327.2,64.12c.32.75.85.75,1.6,0,2.03-2.02,3.81-4.37,5.36-7.04,1.54-2.67,1.95-5.44,1.2-8.32-.21-.64-.7-1.2-1.44-1.68-.75-.48-1.44-.83-2.08-1.04-1.17-.32-2.48-.02-3.92.88-1.44.91-2.38,2.06-2.8,3.44-.86,2.35-1.07,4.7-.64,7.04.42,2.35,1.33,4.59,2.72,6.72Z"/><path d="m609.75,89.56c-.54-.64-3.42,1.12-8.64,5.28-1.82,1.5-3.92,3.31-6.32,5.44-2.4,2.13-4.72,4.16-6.96,6.08-2.24,1.92-4.24,3.47-6,4.64-1.76,1.18-3.01,1.5-3.76.96-.11-2.56.13-5.06.72-7.52.58-2.45,1.36-4.9,2.32-7.36.96-2.45,2.02-4.93,3.2-7.44,1.17-2.5,2.4-5.09,3.68-7.76.1-2.24-.13-4.4-.72-6.48-.59-2.08-1.47-3.84-2.64-5.28-1.17-1.44-2.56-2.42-4.16-2.96-1.6-.53-3.36-.43-5.28.32-3.95,1.6-8,3.95-12.16,7.04-4.16,3.1-7.79,6.24-10.88,9.44.42-1.81.69-3.73.8-5.76.1-2.02-.27-4-1.12-5.92-.75-1.81-1.87-2.99-3.36-3.52-1.5-.53-2.93-.32-4.32.64-2.88,3.63-5.84,7.28-8.88,10.96-3.04,3.68-6.11,7.23-9.2,10.64.42-2.02.9-4.1,1.44-6.24.53-2.13,1.01-4.27,1.44-6.4.42-2.13.34-3.89-.24-5.28-.59-1.38-1.39-2.37-2.4-2.96-1.02-.58-2.06-.75-3.12-.48-1.07.27-1.82,1.04-2.24,2.32-.64,1.81-1.31,3.87-2,6.16-.7,2.29-1.42,4.64-2.16,7.04-.2.65-.38,1.27-.58,1.92-.42.44-.87.89-1.34,1.36-1.07.96-2.4,2.19-4,3.68-1.6,1.5-3.25,3.04-4.96,4.64-1.71,1.6-3.42,3.12-5.12,4.56-1.71,1.44-3.25,2.64-4.64,3.6-1.17.64-2.72,1.39-4.64,2.24-1.92.85-3.82,1.36-5.68,1.52-1.87.16-3.39-.16-4.56-.96-1.17-.8-1.6-2.58-1.28-5.36,0-1.06.58-2.37,1.76-3.92,1.17-1.54,2.56-3.06,4.16-4.56,1.6-1.49,3.25-2.93,4.96-4.32,1.71-1.38,3.04-2.5,4-3.36,1.92-1.81,3.28-3.54,4.08-5.2.8-1.65,1.41-3.65,1.84-6,.53-2.45.19-4.53-1.04-6.24-1.23-1.71-2.96-2.83-5.2-3.36-4.38.11-8.19,1.33-11.44,3.68-3.25,2.35-5.95,5.36-8.08,9.04-2.04,3.53-3.58,7.38-4.65,11.55-1.05.6-2.11,1.2-3.19,1.81-2.13,1.28-4.59,2.64-6.88,4.08-2.29,1.44-3.88,2.96-6.88,4.56v-1.6c0-2.13-.1-4.16-.16-6.08-.06-1.92-.07-3.84-.28-5.76-.21-1.28-.9-2.02-2.18-2.24-1.28-.21-2.66-.16-4.21.16-1.55.32-3.02.8-4.47,1.44s-2.47,1.17-3.11,1.6c-1.6.96-3.52,2.32-5.76,4.08-2.24,1.76-4.4,3.44-6.48,5.04-2.08,1.6-4,2.91-5.76,3.92-1.76,1.02-2.96,1.2-3.6.56-.43-1.28-.43-3.04,0-5.28.42-2.24,1.3-4.48,2.64-6.72,1.33-2.24,3.15-4.19,5.44-5.84,2.29-1.65,5.09-2.48,8.4-2.48,1.07,0,2.21.06,3.44.16,1.22.11,2.42.27,3.6.48,2.77.32,3.63-.69,2.56-3.04-.32-1.06-.94-1.86-1.84-2.4-.91-.53-1.95-1.06-3.12-1.6-5.66-2.34-11.52-2.56-17.6-.64-3.95,1.18-7.09,3.31-9.44,6.4-1.11,1.46-2.06,3.02-2.86,4.68-1.1,1.03-2.38,2.4-3.86,4.12-1.92,2.24-3.98,4.59-6.16,7.04-2.19,2.46-4.4,4.77-6.64,6.96-2.24,2.19-4.37,3.71-6.4,4.56-2.56.96-4.32,1.02-5.28.16-.96-.85-1.28-2.67-.96-5.44.32-1.81,1.09-3.89,2.32-6.24,1.22-2.35,2.21-4.37,2.96-6.08.64-1.38.77-2.75.4-4.08-.38-1.33-1.07-2.45-2.08-3.36-1.01-.9-2.21-1.41-3.6-1.52-1.39-.1-2.78.38-4.16,1.44-.11.11-.83,1.04-2.16,2.8-1.33,1.76-2.91,3.79-4.72,6.08-1.81,2.3-3.74,4.62-5.76,6.96-2.03,2.35-3.84,4.19-5.44,5.52-1.6,1.33-2.77,1.92-3.52,1.76-.75-.16-.8-1.62-.16-4.4.42-1.71,1.49-4.24,3.2-7.6,1.71-3.36,3.73-6.72,6.08-10.08,2.34-3.36,4.8-6.29,7.36-8.8,2.56-2.51,4.85-3.76,6.88-3.76.96,0,1.73.24,2.32.72.58.48,1.04,1.01,1.36,1.6.32.59.56,1.17.72,1.76.16.59.29,1.04.4,1.36.32.64.64.94.96.88.32-.05.67-.29,1.04-.72.37-.42.69-.96.96-1.6.26-.64.5-1.28.72-1.92.42-1.71.26-3.28-.48-4.72-.75-1.44-1.81-2.64-3.2-3.6-1.39-.96-3.02-1.57-4.88-1.84-1.87-.26-3.66-.19-5.36.24-5.12,1.07-9.5,3.52-13.12,7.36-3.63,3.84-6.62,8.21-8.96,13.12-.47,1.02-.92,2.06-1.34,3.09-2.83,3.12-5.69,6.22-8.58,9.31-3.95,4.21-8.11,8.56-12.48,13.04-1.82,1.81-3.25,3.1-4.32,3.84-1.07.75-1.5.32-1.28-1.28.1-.85.37-2.08.8-3.68.42-1.6.91-3.28,1.44-5.04.53-1.76,1.04-3.44,1.52-5.04.48-1.6.83-2.82,1.04-3.68.53-1.81,1.01-3.54,1.44-5.2.43-1.65.91-3.38,1.44-5.2.64-1.92.72-3.84.24-5.76-.48-1.92-1.23-3.54-2.24-4.88-1.01-1.33-2.16-2.21-3.44-2.64-1.28-.42-2.4-.16-3.36.8-.96,1.6-1.71,3.15-2.24,4.64-1.82,5.02-3.38,10.59-4.72,16.72-1.33,6.13-1.84,12.13-1.52,18,0,1.92.51,3.71,1.52,5.36,1.01,1.65,2.42,3.06,4.24,4.24.53.42,1.25.69,2.16.8.91.1,1.84.08,2.8-.08.96-.16,1.89-.4,2.8-.72.9-.32,1.62-.7,2.16-1.12,1.49-1.28,2.88-2.67,4.16-4.16,1.07-.96,2.5-2.53,4.32-4.72,1.81-2.19,3.71-4.58,5.68-7.2.79-1.05,1.57-2.09,2.33-3.12-.12.54-.23,1.08-.33,1.6-.11,1.07-.05,2.51.16,4.32.21,1.82.8,3.2,1.76,4.16s1.97,1.79,3.04,2.48c1.06.69,2.24,1.15,3.52,1.36,1.71.32,3.33.3,4.88-.08,1.54-.37,3.01-.91,4.4-1.6,1.38-.69,2.67-1.49,3.84-2.4,1.17-.91,2.24-1.73,3.2-2.48.32,1.71.91,3.31,1.76,4.8.85,1.5,1.97,2.72,3.36,3.68,1.38.96,2.93,1.57,4.64,1.84,1.71.27,3.62.02,5.76-.72,3.41-1.28,6.58-3.01,9.52-5.2,2.93-2.19,5.6-4.69,8-7.52,1.54-1.81,2.96-3.73,4.3-5.74.11,1.46.38,2.84.82,4.14.59,1.76,1.57,3.31,2.96,4.64,1.38,1.33,3.3,2.21,5.76,2.64,2.67.32,5.33.11,8-.64,2.67-.75,5.28-1.76,7.84-3.04,2.56-1.28,5.04-2.77,7.44-4.48,2.4-1.71,4.66-3.41,6.8-5.12.85-.85,1.38-.88,1.6-.08.21.8.24,1.87.08,3.2-.16,1.33-.43,2.72-.8,4.16-.38,1.44-.78,2.38-1.2,2.8-4.7,4.05-9.28,8.24-13.76,12.56-4.48,4.32-8.72,8.88-12.72,13.68-4,4.8-7.74,9.89-11.2,15.28-3.46,5.38-6.53,11.12-9.2,17.2-.96,2.13-1.87,4.64-2.72,7.52-.85,2.88-1.36,5.79-1.52,8.72-.16,2.93.13,5.73.88,8.4.75,2.67,2.24,4.96,4.48,6.88,1.39,1.17,2.85,1.89,4.4,2.16,1.55.26,3.12.29,4.72.08,6.4-3.42,11.86-8.21,16.4-14.4,4.53-6.19,8.4-12.99,11.6-20.4,3.2-7.41,5.94-15.07,8.24-22.96,2.29-7.9,4.51-15.31,6.64-22.24.53-2.24,1.14-4.21,1.84-5.92.69-1.71,1.89-3.41,3.6-5.12,2.35-2.13,4.5-4.02,6.48-5.68,1.82-1.52,3.76-3.31,5.8-5.33-.18,1.94-.22,3.85-.12,5.73,0,5.34,1.58,9.18,4.72,11.52,3.14,2.35,7.17,3.36,12.08,3.04,2.77-.42,5.46-1.36,8.08-2.8,2.61-1.44,5.12-3.15,7.52-5.12,2.4-1.97,4.69-4.13,6.88-6.48,1.74-1.86,3.37-3.64,4.94-5.37-.07.3-.15.61-.22.89-.21.64-.42,2.11-.64,4.4-.21,2.29-.21,4.4,0,6.32.11.64.29,1.36.56,2.16.27.8.64,1.47,1.12,2,.48.54,1.04.85,1.68.96.64.11,1.38-.21,2.24-.96,3.73-5.12,7.54-10.24,11.44-15.36,3.89-5.12,8.08-10.19,12.56-15.2-.21.86-.48,2.38-.8,4.56-.32,2.19-.51,4.43-.56,6.72-.05,2.29.08,4.32.4,6.08.32,1.76,1.01,2.64,2.08,2.64.42,0,.93-.13,1.52-.4.58-.26,1.46-.93,2.64-2,2.77-2.67,5.81-5.6,9.12-8.8,3.3-3.2,6.45-6.08,9.44-8.64,2.99-2.56,5.52-4.56,7.6-6,2.08-1.44,3.28-1.73,3.6-.88-1.28,2.46-2.67,5.12-4.16,8-1.5,2.88-2.83,5.84-4,8.88-1.17,3.04-2.11,6.11-2.8,9.2-.7,3.09-.88,6.03-.56,8.8.21,2.14.96,3.92,2.24,5.36,1.28,1.44,2.8,2.51,4.56,3.2,1.76.69,3.54,1.01,5.36.96,1.81-.06,3.41-.56,4.8-1.52,4.27-2.88,8.29-6.29,12.08-10.24,3.79-3.95,7.39-7.95,10.8-12,3.52-4.16,5.01-6.56,4.48-7.2Zm-122-12.64c1.65-1.71,3.92-3.09,6.8-4.16-.86,2.56-2.21,4.72-4.08,6.48-1.87,1.76-3.98,3.49-6.32,5.2.75-3.3,1.95-5.81,3.6-7.52Zm-51.44,51.92c-1.17,3.15-2.54,6.51-4.08,10.08-1.55,3.57-3.09,6.99-4.64,10.24-1.55,3.25-2.7,5.62-3.44,7.12-.96,1.92-2.19,4.4-3.68,7.44-1.5,3.04-3.18,6.16-5.04,9.36-1.87,3.2-3.87,6.13-6,8.8-2.13,2.67-4.27,4.53-6.4,5.6-.75-2.99-.93-5.89-.56-8.72.38-2.83,1.04-5.79,2-8.88,1.6-4.69,3.63-9.15,6.08-13.36,2.45-4.21,5.14-8.24,8.08-12.08,2.93-3.84,6.08-7.6,9.44-11.28,3.36-3.68,6.69-7.33,10-10.96,0,1.28-.59,3.49-1.76,6.64Z"/></g><g id="boa"><path d="m55.84,51.16c.64,0,1.23-.08,1.76-.24.53-.16,1.12-.24,1.76-.24,3.2,0,6.8-.85,10.8-2.56,4-1.71,7.68-3.84,11.04-6.4,3.36-2.56,6.08-5.39,8.16-8.48,2.08-3.09,2.85-6.08,2.32-8.96-1.49-3.31-3.76-5.81-6.8-7.52-3.04-1.71-6.59-2.8-10.64-3.28-4.05-.48-8.35-.42-12.88.16-4.54.59-9.02,1.5-13.44,2.72-4.43,1.23-8.59,2.72-12.48,4.48-3.9,1.76-7.12,3.6-9.68,5.52-1.17.43-1.84.14-2-.88-.16-1.01-.06-2.24.32-3.68.37-1.44.91-2.88,1.6-4.32.69-1.44,1.31-2.48,1.84-3.12,1.38-2.77,3.15-4.96,5.28-6.56,2.13-1.6,4.48-2.88,7.04-3.84,4.16-1.49,9.38-2.45,15.68-2.88,6.29-.42,12.58-.13,18.88.88,6.29,1.02,11.97,2.8,17.04,5.36,5.06,2.56,8.5,6.08,10.32,10.56,1.06,3.52,1.36,6.96.88,10.32-.48,3.36-1.49,6.48-3.04,9.36-1.55,2.88-3.55,5.55-6,8-2.45,2.46-5.12,4.59-8,6.4-.21.22-.43.38-.64.48-.22.11-.54.27-.96.48,1.81.75,3.52,1.47,5.12,2.16,1.6.69,3.15,1.63,4.64,2.8,1.81,1.39,3.36,3.07,4.64,5.04,1.28,1.98,2.13,3.98,2.56,6,1.06,3.52,1.28,7.02.64,10.48-.64,3.47-1.55,6.64-2.72,9.52-1.6,3.2-3.5,6.32-5.68,9.36-2.19,3.04-4.56,5.63-7.12,7.76-6.61,7.36-14.11,13.04-22.48,17.04-8.38,4-17.25,6.58-26.64,7.76-3.2.11-6.19.05-8.96-.16-2.78-.22-5.33-.8-7.68-1.76-2.35-.96-4.48-2.35-6.4-4.16-1.92-1.81-3.63-4.27-5.12-7.36-2.13-3.2-3.98-6.48-5.52-9.84-1.55-3.36-2.56-6.69-3.04-10-.48-3.31-.24-6.4.72-9.28.96-2.88,2.88-5.44,5.76-7.68,2.02-1.81,4.13-3.44,6.32-4.88,2.18-1.44,4.66-2.43,7.44-2.96.53-.21.98-.4,1.36-.56.37-.16.83-.24,1.36-.24h.48c-.53.54-.96,1.07-1.28,1.6-.32.54-.64.96-.96,1.28-1.81,2.24-3.58,4.75-5.28,7.52-1.71,2.78-3.01,5.66-3.92,8.64-.91,2.99-1.31,5.98-1.2,8.96.1,2.99,1.01,5.71,2.72,8.16,1.49,2.13,3.28,3.76,5.36,4.88,2.08,1.12,4.32,1.87,6.72,2.24,2.4.38,4.83.48,7.28.32,2.45-.16,4.8-.4,7.04-.72,7.25-1.38,13.84-3.84,19.76-7.36s11.38-7.78,16.4-12.8c1.28-1.49,2.64-3.17,4.08-5.04,1.44-1.87,2.77-3.79,4-5.76,1.23-1.97,2.29-4,3.2-6.08.91-2.08,1.52-4.08,1.84-6-.54-2.99-1.52-5.25-2.96-6.8-1.44-1.54-3.39-2.58-5.84-3.12-2.45-.53-5.42-.72-8.88-.56-3.47.16-7.44.45-11.92.88-1.5.21-3.04.35-4.64.4-1.6.06-3.2.19-4.8.4-.11,0-.27.11-.48.32-.11.11-.22.16-.32.16-3.41,6.4-6.67,12.91-9.76,19.52-3.1,6.62-6.88,12.75-11.36,18.4-.22.32-.72,1.04-1.52,2.16-.8,1.12-1.66,2.14-2.56,3.04s-1.79,1.44-2.64,1.6c-.85.16-1.39-.56-1.6-2.16-.53-1.06-.75-2.48-.64-4.24.1-1.76.37-3.6.8-5.52.42-1.92.93-3.76,1.52-5.52.58-1.76,1.04-3.12,1.36-4.08.53-1.92,1.06-3.81,1.6-5.68.53-1.86,1.17-3.71,1.92-5.52,2.35-4.69,4.56-9.33,6.64-13.92,2.08-4.58,4.34-9.12,6.8-13.6,1.28-2.77,2.58-5.49,3.92-8.16,1.33-2.67,2.69-5.28,4.08-7.84.96-1.49,2.19-2.26,3.68-2.32,1.49-.05,2.9.38,4.24,1.28,1.33.91,2.45,2.14,3.36,3.68.9,1.55,1.25,3.23,1.04,5.04-.54,2.13-1.23,4.13-2.08,6-.85,1.87-1.71,3.71-2.56,5.52Z"/><path d="m221.68,83.72c-.06-.37-.35-.67-.88-.88-.32-.21-.72-.13-1.2.24-.48.38-.88.72-1.2,1.04-1.28,1.07-2.88,2.72-4.8,4.96s-3.98,4.59-6.16,7.04c-2.19,2.46-4.4,4.77-6.64,6.96-2.24,2.19-4.38,3.71-6.4,4.56-2.56.96-4.32,1.02-5.28.16-.96-.85-1.28-2.67-.96-5.44.32-1.81,1.09-3.89,2.32-6.24,1.22-2.35,2.21-4.37,2.96-6.08.64-1.38.77-2.75.4-4.08-.38-1.33-1.07-2.45-2.08-3.36-1.02-.9-2.21-1.41-3.6-1.52-1.39-.1-2.77.38-4.16,1.44-.11.11-.83,1.04-2.16,2.8-1.33,1.76-2.91,3.79-4.72,6.08-1.81,2.3-3.73,4.62-5.76,6.96-2.03,2.35-3.84,4.19-5.44,5.52-1.6,1.33-2.78,1.92-3.52,1.76-.75-.16-.8-1.62-.16-4.4.42-1.71,1.49-4.24,3.2-7.6,1.7-3.36,3.73-6.72,6.08-10.08,2.35-3.36,4.8-6.29,7.36-8.8,2.56-2.51,4.85-3.76,6.88-3.76.96,0,1.73.24,2.32.72.58.48,1.04,1.01,1.36,1.6.32.59.56,1.17.72,1.76.16.59.29,1.04.4,1.36.32.64.64.94.96.88.32-.05.67-.29,1.04-.72.37-.42.69-.96.96-1.6.27-.64.51-1.28.72-1.92.42-1.71.27-3.28-.48-4.72-.75-1.44-1.81-2.64-3.2-3.6-1.39-.96-3.01-1.57-4.88-1.84-1.87-.26-3.65-.19-5.36.24-5.12,1.07-9.5,3.52-13.12,7.36-2.99,3.16-5.53,6.69-7.65,10.57-.72.21-1.44.44-2.19.71-1.66.59-3.23,1.09-4.72,1.52-1.28.32-2.67.75-4.16,1.28-1.49.54-2.88.85-4.16.96.1-.64.27-1.6.48-2.88.21-1.28.27-2.69.16-4.24-.11-1.54-.43-3.15-.96-4.8-.53-1.65-1.44-3.17-2.72-4.56-1.5-1.81-3.23-3.04-5.2-3.68-1.98-.64-4.13-.74-6.48-.32-3.73.43-7.01,2-9.84,4.72-2.83,2.72-5.15,5.68-6.96,8.88-.64,1.07-1.12,2.24-1.44,3.52-.32,1.28-.64,2.51-.96,3.68-.21.32-.45.54-.72.64-.27.11-.5.21-.72.32-.21.11-.43.3-.64.56-.21.27-.37.78-.48,1.52-.43,1.6-.8,3.66-1.12,6.16-.32,2.51-.4,5.07-.24,7.68.16,2.61.64,5.04,1.44,7.28.8,2.24,2,3.9,3.6,4.96,2.13,1.71,4.69,2.56,7.68,2.56,2.13,0,4.35-.96,6.64-2.88,2.29-1.92,4.48-4.21,6.56-6.88,2.08-2.67,3.97-5.41,5.68-8.24,1.71-2.83,3.04-5.09,4-6.8,2.24-1.17,4.61-2.08,7.12-2.72,2.45-.63,4.93-1.51,7.43-2.65-.71,1.77-1.35,3.56-1.91,5.37-.96,3.09-1.71,6.03-2.24,8.8-.11,1.07-.05,2.51.16,4.32.22,1.82.8,3.2,1.76,4.16s1.97,1.79,3.04,2.48c1.06.69,2.24,1.15,3.52,1.36,1.7.32,3.33.3,4.88-.08,1.54-.37,3.01-.91,4.4-1.6,1.38-.69,2.67-1.49,3.84-2.4,1.17-.91,2.24-1.73,3.2-2.48.32,1.71.9,3.31,1.76,4.8.85,1.5,1.97,2.72,3.36,3.68,1.38.96,2.93,1.57,4.64,1.84,1.71.27,3.62.02,5.76-.72,3.41-1.28,6.58-3.01,9.52-5.2,2.93-2.19,5.6-4.69,8-7.52,2.4-2.83,4.56-5.89,6.48-9.2,1.92-3.3,3.57-6.67,4.96-10.08,0-.42-.03-.82-.08-1.2Zm-90.08,16c-.91,1.76-1.98,3.49-3.2,5.2-1.23,1.71-2.51,3.23-3.84,4.56s-2.53,2.11-3.6,2.32c-.54-.85-.96-2.03-1.28-3.52-.32-1.49-.54-3.07-.64-4.72-.11-1.65-.11-3.25,0-4.8.1-1.55.32-2.8.64-3.76,2.13.43,4.42.64,6.88.64s4.75-.1,6.88-.32c-.32,1.17-.94,2.64-1.84,4.4Zm4.56-13.52c0,.21-.11.43-.32.64s-.43.32-.64.32c-.54,0-1.52.11-2.96.32-1.44.22-2.94.35-4.48.4-1.55.06-2.94.03-4.16-.08-1.23-.1-1.84-.43-1.84-.96.1-1.17-.38-2.24-1.44-3.2-.22-.21-.32-.58-.32-1.12,1.17-1.81,2.4-3.57,3.68-5.28,1.28-1.71,2.98-3.2,5.12-4.48,1.06-.53,2.19-.75,3.36-.64,1.17.11,2.13.59,2.88,1.44,1.49,1.5,2.27,3.47,2.32,5.92.05,2.46-.35,4.7-1.2,6.72Z"/></g></svg>